<svg width="154" height="48" viewBox="0 0 154 48" fill="none" xmlns="http://www.w3.org/2000/svg">
<path d="M58.87 15.2129C58.8713 15.544 58.7354 15.8608 58.4946 16.0879C58.2524 16.3307 57.921 16.463 57.5782 16.4538C57.2495 16.444 56.9368 16.3098 56.7032 16.0784C55.7847 15.1598 54.2754 14.7916 53.2892 14.7961C51.7896 14.7961 50.6166 15.3094 49.7702 16.3361C48.9239 17.3627 48.4996 18.82 48.4976 20.7079V34.2528C48.5236 34.6107 48.377 34.9595 48.103 35.1914C47.864 35.3925 47.5628 35.5049 47.2503 35.5095C46.9379 35.5049 46.6367 35.3925 46.3976 35.1914C46.1233 34.9598 45.9765 34.6108 46.0031 34.2528V20.7079C45.9946 19.6021 46.149 18.5011 46.4612 17.4403C46.7438 16.4724 47.2105 15.5682 47.8357 14.7772C48.4463 14.0077 49.2214 13.3848 50.1043 12.9541C51.0996 12.4906 52.1884 12.2631 53.286 12.2891C54.2272 12.3053 55.1579 12.4885 56.0351 12.83C56.9387 13.1496 57.7625 13.6608 58.45 14.3287C58.7056 14.5532 58.8575 14.8732 58.87 15.2132L58.87 15.2129Z" fill="#999994"></path>
<path d="M65.1123 34.2525C65.1251 34.429 65.0961 34.606 65.0275 34.7691C64.9589 34.9322 64.8528 35.0768 64.7178 35.1911C64.4792 35.3936 64.1764 35.5048 63.8635 35.5048C63.5505 35.5048 63.2478 35.3936 63.0092 35.1911C62.8739 35.077 62.7677 34.9324 62.6991 34.7693C62.6305 34.6061 62.6016 34.429 62.6146 34.2525V13.9631C62.6018 13.7867 62.6309 13.6097 62.6994 13.4466C62.768 13.2835 62.8741 13.1389 63.0092 13.0245C63.2481 12.8227 63.5507 12.7119 63.8635 12.7119C64.1762 12.7119 64.4789 12.8227 64.7178 13.0245C64.8526 13.139 64.9586 13.2836 65.0271 13.4467C65.0957 13.6098 65.1249 13.7867 65.1123 13.9631V34.2525Z" fill="#999994"></path>
<path d="M86.7689 34.2526C86.7814 34.4293 86.7518 34.6065 86.6827 34.7696C86.6136 34.9328 86.5068 35.0772 86.3712 35.1912C86.1328 35.3928 85.8307 35.5035 85.5185 35.5035C85.2063 35.5035 84.9042 35.3928 84.6658 35.1912C84.5306 35.0771 84.4243 34.9325 84.3557 34.7693C84.2871 34.6062 84.2582 34.4291 84.2713 34.2526V20.4184C84.2765 19.6674 84.127 18.9233 83.8322 18.2325C83.2596 16.8826 82.1849 15.8079 80.835 15.2353C80.1424 14.9469 79.3994 14.7983 78.6491 14.7983C77.8988 14.7983 77.1559 14.9469 76.4632 15.2353C75.1135 15.8082 74.0389 16.8828 73.466 18.2325C73.1729 18.9237 73.0246 19.6677 73.0302 20.4184V34.2526C73.0432 34.4291 73.0143 34.6062 72.9457 34.7693C72.8771 34.9325 72.7709 35.0771 72.6356 35.1912C72.397 35.3937 72.0943 35.5048 71.7813 35.5048C71.4684 35.5048 71.1656 35.3937 70.927 35.1912C70.7918 35.0771 70.6855 34.9325 70.6169 34.7693C70.5483 34.6062 70.5194 34.4291 70.5325 34.2526V20.4184C70.5244 19.3306 70.741 18.2528 71.1688 17.2526C71.5741 16.2888 72.1606 15.4118 72.8965 14.6691C73.6294 13.9391 74.4928 13.3531 75.4419 12.9415C76.4481 12.5138 77.5303 12.2935 78.6236 12.2935C79.717 12.2935 80.7991 12.5138 81.8054 12.9415C83.7543 13.7518 85.3032 15.3007 86.1135 17.2496C86.5408 18.25 86.7575 19.3276 86.7499 20.4154L86.7689 34.2526Z" fill="#999994"></path>
<path d="M108 35.7096C108.011 36.8029 107.794 37.8864 107.363 38.8914C106.541 40.8313 104.991 42.3713 103.046 43.1804C102.045 43.6075 100.968 43.8241 99.88 43.8167C99.2645 43.8132 98.6507 43.7505 98.0473 43.629C97.3945 43.5024 96.7552 43.3138 96.1382 43.0659C95.5194 42.8196 94.9329 42.4991 94.3914 42.1114C93.8778 41.7495 93.4337 41.2979 93.0806 40.7783C92.9381 40.5697 92.8656 40.3212 92.8738 40.0688C92.8647 39.7267 93.0095 39.3986 93.2683 39.1747C93.5098 38.946 93.8297 38.8185 94.1624 38.8183C94.3403 38.8209 94.5162 38.8563 94.681 38.9233C94.8846 39.012 95.0534 39.1651 95.1614 39.3592C95.6562 40.1044 96.7241 40.6942 97.43 40.9214C98.2155 41.1808 99.0368 41.3151 99.864 41.3191C100.615 41.3241 101.359 41.1747 102.05 40.88C103.4 40.3074 104.475 39.2328 105.047 37.8829C105.346 37.1973 105.501 36.4576 105.502 35.7098V32.8462C104.765 33.5499 103.901 34.1081 102.957 34.4912C101.98 34.8946 100.933 35.1001 99.8767 35.0957C98.7835 35.1069 97.6998 34.8902 96.695 34.4594C94.764 33.6388 93.2266 32.1013 92.406 30.1703C91.9747 29.1656 91.758 28.0819 91.7696 26.9886V20.4184C91.7615 19.3306 91.9781 18.2527 92.406 17.2526C92.8108 16.2885 93.3973 15.4114 94.1336 14.6691C94.8666 13.9391 95.73 13.3531 96.679 12.9414C98.7122 12.0775 101.009 12.0775 103.043 12.9414C104.992 13.7515 106.541 15.3004 107.351 17.2496C107.778 18.25 107.995 19.3276 107.987 20.4154V35.7097L108 35.7096ZM105.502 20.4184C105.507 19.6674 105.358 18.9233 105.063 18.2325C104.49 16.8826 103.416 15.8079 102.066 15.2354C100.667 14.6528 99.093 14.6528 97.6939 15.2354C96.3401 15.8051 95.2608 16.8787 94.684 18.2293C94.3914 18.9207 94.243 19.6645 94.2481 20.4152V26.9538C94.2408 27.7099 94.3892 28.4594 94.684 29.1555C94.9683 29.8247 95.3788 30.4328 95.8931 30.9468C96.4065 31.461 97.0149 31.8705 97.6843 32.1527C99.0834 32.7353 100.657 32.7353 102.056 32.1527C103.406 31.5801 104.481 30.5055 105.053 29.1555C105.354 28.4606 105.506 27.7109 105.502 26.9538L105.502 20.4184Z" fill="#999994"></path>
<path d="M63.8652 9.26992C65.0443 9.26992 66.0001 8.31406 66.0001 7.13496C66.0001 5.95585 65.0443 5 63.8652 5C62.6861 5 61.7302 5.95585 61.7302 7.13496C61.7302 8.31406 62.6861 9.26992 63.8652 9.26992Z" fill="#999994"></path>
</svg>