<svg width="154" height="48" viewBox="0 0 154 48" fill="black" xmlns="http://www.w3.org/2000/svg">
<g clip-path="url(#clip0)">
<path d="M0 7V32.4958H4.22199V25.4314L5.13981 24.5912L11.5681 32.4958H16.7856L8.37338 22.4067L16.1961 14.6491H10.9821L4.22199 21.3845V7H0Z" ></path>
<path d="M25.2555 29.1139C28.302 29.1139 30.653 26.6739 30.653 23.5757C30.653 20.4811 28.302 18.0411 25.2555 18.0411C22.2055 18.0411 19.8545 20.4811 19.8545 23.5757C19.8545 26.6739 22.2055 29.1139 25.2555 29.1139ZM34.6561 14.6559V32.5026H30.4695V29.9156C29.1492 31.7744 26.8688 32.9367 24.373 32.9367C19.4167 32.9367 15.5972 28.8583 15.5972 23.5757C15.5972 18.2931 19.4167 14.2183 24.373 14.2183C26.8723 14.2183 29.1492 15.237 30.4695 17.0959V14.6559H34.6561Z" ></path>
<path d="M42.221 32.4927H37.9602V14.6495H42.221V17.016C43.3224 15.3427 45.1969 14.2119 47.728 14.2119C52.0982 14.2119 54.707 17.1245 54.707 21.7525V32.4962H50.4461V22.5542C50.4461 19.7851 49.0129 18.1082 46.443 18.1082C43.9084 18.1082 42.221 20.0371 42.221 23.0968V32.4927Z" ></path>
<path d="M66.8079 18.0008C63.8709 18.0008 61.594 20.3673 61.594 23.3149C61.594 26.301 63.8709 28.671 66.8079 28.671C69.7485 28.671 72.0254 26.3045 72.0254 23.3149C72.0254 20.3673 69.7485 18.0008 66.8079 18.0008ZM65.9289 32.3118C61.0468 32.3118 57.2979 28.4505 57.2979 23.3149C57.2979 18.1793 61.0433 14.2095 65.9289 14.2095C68.4282 14.2095 70.631 15.3017 71.8418 17.0486V14.6471H76.0285V31.4016C76.0285 36.9362 72.5019 40.689 66.6243 40.689C62.6212 40.689 59.4618 38.9421 57.9227 35.991L61.301 33.8801C62.4024 35.8825 64.3474 37.0132 66.6243 37.0132C69.8579 37.0132 71.8383 34.9023 71.8383 31.4401V29.4342C70.6275 31.146 68.3894 32.3118 65.9289 32.3118Z" ></path>
<path d="M88.1498 29.1086C91.1963 29.1086 93.5473 26.6686 93.5473 23.5704C93.5473 20.4758 91.1963 18.0358 88.1498 18.0358C85.0998 18.0358 82.7487 20.4758 82.7487 23.5704C82.7487 26.6686 85.0998 29.1086 88.1498 29.1086ZM97.5504 14.6506V32.4973H93.3637V29.9103C92.0435 31.7692 89.763 32.9314 87.2673 32.9314C82.311 32.9314 78.4915 28.853 78.4915 23.5704C78.4915 18.2878 82.311 14.2095 87.2673 14.2095C89.7666 14.2095 92.0435 15.2282 93.3637 17.0871V14.6471H97.5504V14.6506Z" ></path>
<path d="M105.077 32.4961H100.855V14.6528H105.041L105.077 32.4961Z" ></path>
<path d="M118.044 23.5729C118.044 26.6325 120.395 29.0725 123.402 29.0725C126.414 29.0725 128.765 26.6325 128.765 23.5729C128.765 20.5132 126.414 18.0732 123.402 18.0732C120.395 18.0732 118.044 20.5132 118.044 23.5729ZM132.99 23.5729C132.99 28.817 128.913 32.9338 123.406 32.9338C117.899 32.9338 113.822 28.8205 113.822 23.5729C113.822 18.3288 117.899 14.2119 123.406 14.2119C128.916 14.2119 132.99 18.3288 132.99 23.5729Z" ></path>
<path d="M139.054 23.5729C139.054 26.6325 141.405 29.0725 144.412 29.0725C147.423 29.0725 149.775 26.6325 149.775 23.5729C149.775 20.5132 147.423 18.0732 144.412 18.0732C141.401 18.0732 139.054 20.5132 139.054 23.5729ZM154 23.5729C154 28.817 149.923 32.9338 144.416 32.9338C138.909 32.9338 134.832 28.8205 134.832 23.5729C134.832 18.3288 138.909 14.2119 144.416 14.2119C149.923 14.2119 154 18.3288 154 23.5729Z" ></path>
<path d="M113.164 17.9742C113.164 19.8121 111.66 21.3034 109.807 21.3034C107.954 21.3034 106.446 19.8121 106.446 17.9742C106.446 16.1363 107.95 14.645 109.807 14.645C111.66 14.645 113.164 16.1328 113.164 17.9742Z" ></path>
</g>
<defs>
<clipPath id="clip0">
<rect width="154" height="48" ></rect>
</clipPath>
</defs>
</svg>